solid grip_clip_step5_final
 facet normal 0 0 1
  outer loop
   vertex 0 0 0
   vertex 112.3 0 0
   vertex 112.3 26 0
  endloop
 endfacet
 facet normal 0 0 1
  outer loop
   vertex 0 0 0
   vertex 112.3 26 0
   vertex 0 26 0
  endloop
 endfacet
 facet normal 0 0 -1
  outer loop
   vertex 0 0 8
   vertex 112.3 26 8
   vertex 112.3 0 8
  endloop
 endfacet
 facet normal 0 0 -1
  outer loop
   vertex 0 0 8
   vertex 0 26 8
   vertex 112.3 26 8
  endloop
 endfacet
 facet normal 0 1 0
  outer loop
   vertex 0 0 0
   vertex 0 0 8
   vertex 112.3 0 8
  endloop
 endfacet
 facet normal 0 1 0
  outer loop
   vertex 0 0 0
   vertex 112.3 0 8
   vertex 112.3 0 0
  endloop
 endfacet
 facet normal -1 0 0
  outer loop
   vertex 112.3 0 0
   vertex 112.3 0 8
   vertex 112.3 26 8
  endloop
 endfacet
 facet normal -1 0 0
  outer loop
   vertex 112.3 0 0
   vertex 112.3 26 8
   vertex 112.3 26 0
  endloop
 endfacet
 facet normal 0 -1 0
  outer loop
   vertex 112.3 26 0
   vertex 112.3 26 8
   vertex 0 26 8
  endloop
 endfacet
 facet normal 0 -1 0
  outer loop
   vertex 112.3 26 0
   vertex 0 26 8
   vertex 0 26 0
  endloop
 endfacet
 facet normal 1 0 0
  outer loop
   vertex 0 26 0
   vertex 0 26 8
   vertex 0 0 8
  endloop
 endfacet
 facet normal 1 0 0
  outer loop
   vertex 0 26 0
   vertex 0 0 8
   vertex 0 0 0
  endloop
 endfacet
 facet normal 0 0 1
  outer loop
   vertex 24 1 8
   vertex 96 1 8
   vertex 96 8 8
  endloop
 endfacet
 facet normal 0 0 1
  outer loop
   vertex 24 1 8
   vertex 96 8 8
   vertex 24 8 8
  endloop
 endfacet
 facet normal 0 0 -1
  outer loop
   vertex 24 1 28
   vertex 96 8 28
   vertex 96 1 28
  endloop
 endfacet
 facet normal 0 0 -1
  outer loop
   vertex 24 1 28
   vertex 24 8 28
   vertex 96 8 28
  endloop
 endfacet
 facet normal 0 1 0
  outer loop
   vertex 24 1 8
   vertex 24 1 28
   vertex 96 1 28
  endloop
 endfacet
 facet normal 0 1 0
  outer loop
   vertex 24 1 8
   vertex 96 1 28
   vertex 96 1 8
  endloop
 endfacet
 facet normal -1 0 0
  outer loop
   vertex 96 1 8
   vertex 96 1 28
   vertex 96 8 28
  endloop
 endfacet
 facet normal -1 0 0
  outer loop
   vertex 96 1 8
   vertex 96 8 28
   vertex 96 8 8
  endloop
 endfacet
 facet normal 0 -1 0
  outer loop
   vertex 96 8 8
   vertex 96 8 28
   vertex 24 8 28
  endloop
 endfacet
 facet normal 0 -1 0
  outer loop
   vertex 96 8 8
   vertex 24 8 28
   vertex 24 8 8
  endloop
 endfacet
 facet normal 1 0 0
  outer loop
   vertex 24 8 8
   vertex 24 8 28
   vertex 24 1 28
  endloop
 endfacet
 facet normal 1 0 0
  outer loop
   vertex 24 8 8
   vertex 24 1 28
   vertex 24 1 8
  endloop
 endfacet
 facet normal 0 0 1
  outer loop
   vertex 24 18 8
   vertex 96 18 8
   vertex 96 25 8
  endloop
 endfacet
 facet normal 0 0 1
  outer loop
   vertex 24 18 8
   vertex 96 25 8
   vertex 24 25 8
  endloop
 endfacet
 facet normal 0 0 -1
  outer loop
   vertex 24 18 28
   vertex 96 25 28
   vertex 96 18 28
  endloop
 endfacet
 facet normal 0 0 -1
  outer loop
   vertex 24 18 28
   vertex 24 25 28
   vertex 96 25 28
  endloop
 endfacet
 facet normal 0 1 0
  outer loop
   vertex 24 18 8
   vertex 24 18 28
   vertex 96 18 28
  endloop
 endfacet
 facet normal 0 1 0
  outer loop
   vertex 24 18 8
   vertex 96 18 28
   vertex 96 18 8
  endloop
 endfacet
 facet normal -1 0 0
  outer loop
   vertex 96 18 8
   vertex 96 18 28
   vertex 96 25 28
  endloop
 endfacet
 facet normal -1 0 0
  outer loop
   vertex 96 18 8
   vertex 96 25 28
   vertex 96 25 8
  endloop
 endfacet
 facet normal 0 -1 0
  outer loop
   vertex 96 25 8
   vertex 96 25 28
   vertex 24 25 28
  endloop
 endfacet
 facet normal 0 -1 0
  outer loop
   vertex 96 25 8
   vertex 24 25 28
   vertex 24 25 8
  endloop
 endfacet
 facet normal 1 0 0
  outer loop
   vertex 24 25 8
   vertex 24 25 28
   vertex 24 18 28
  endloop
 endfacet
 facet normal 1 0 0
  outer loop
   vertex 24 25 8
   vertex 24 18 28
   vertex 24 18 8
  endloop
 endfacet
 facet normal 0 0 1
  outer loop
   vertex 2 2 8
   vertex 25 2 8
   vertex 25 24 8
  endloop
 endfacet
 facet normal 0 0 1
  outer loop
   vertex 2 2 8
   vertex 25 24 8
   vertex 2 24 8
  endloop
 endfacet
 facet normal 0 0 -1
  outer loop
   vertex 2 2 17
   vertex 25 24 17
   vertex 25 2 17
  endloop
 endfacet
 facet normal 0 0 -1
  outer loop
   vertex 2 2 17
   vertex 2 24 17
   vertex 25 24 17
  endloop
 endfacet
 facet normal 0 1 0
  outer loop
   vertex 2 2 8
   vertex 2 2 17
   vertex 25 2 17
  endloop
 endfacet
 facet normal 0 1 0
  outer loop
   vertex 2 2 8
   vertex 25 2 17
   vertex 25 2 8
  endloop
 endfacet
 facet normal -1 0 0
  outer loop
   vertex 25 2 8
   vertex 25 2 17
   vertex 25 24 17
  endloop
 endfacet
 facet normal -1 0 0
  outer loop
   vertex 25 2 8
   vertex 25 24 17
   vertex 25 24 8
  endloop
 endfacet
 facet normal 0 -1 0
  outer loop
   vertex 25 24 8
   vertex 25 24 17
   vertex 2 24 17
  endloop
 endfacet
 facet normal 0 -1 0
  outer loop
   vertex 25 24 8
   vertex 2 24 17
   vertex 2 24 8
  endloop
 endfacet
 facet normal 1 0 0
  outer loop
   vertex 2 24 8
   vertex 2 24 17
   vertex 2 2 17
  endloop
 endfacet
 facet normal 1 0 0
  outer loop
   vertex 2 24 8
   vertex 2 2 17
   vertex 2 2 8
  endloop
 endfacet
 facet normal 0 0 1
  outer loop
   vertex 24 1 17
   vertex 32 1 17
   vertex 32 8 17
  endloop
 endfacet
 facet normal 0 0 1
  outer loop
   vertex 24 1 17
   vertex 32 8 17
   vertex 24 8 17
  endloop
 endfacet
 facet normal 0 0 -1
  outer loop
   vertex 24 1 25
   vertex 32 8 25
   vertex 32 1 25
  endloop
 endfacet
 facet normal 0 0 -1
  outer loop
   vertex 24 1 25
   vertex 24 8 25
   vertex 32 8 25
  endloop
 endfacet
 facet normal 0 1 0
  outer loop
   vertex 24 1 17
   vertex 24 1 25
   vertex 32 1 25
  endloop
 endfacet
 facet normal 0 1 0
  outer loop
   vertex 24 1 17
   vertex 32 1 25
   vertex 32 1 17
  endloop
 endfacet
 facet normal -1 0 0
  outer loop
   vertex 32 1 17
   vertex 32 1 25
   vertex 32 8 25
  endloop
 endfacet
 facet normal -1 0 0
  outer loop
   vertex 32 1 17
   vertex 32 8 25
   vertex 32 8 17
  endloop
 endfacet
 facet normal 0 -1 0
  outer loop
   vertex 32 8 17
   vertex 32 8 25
   vertex 24 8 25
  endloop
 endfacet
 facet normal 0 -1 0
  outer loop
   vertex 32 8 17
   vertex 24 8 25
   vertex 24 8 17
  endloop
 endfacet
 facet normal 1 0 0
  outer loop
   vertex 24 8 17
   vertex 24 8 25
   vertex 24 1 25
  endloop
 endfacet
 facet normal 1 0 0
  outer loop
   vertex 24 8 17
   vertex 24 1 25
   vertex 24 1 17
  endloop
 endfacet
 facet normal 0 0 1
  outer loop
   vertex 24 18 17
   vertex 32 18 17
   vertex 32 25 17
  endloop
 endfacet
 facet normal 0 0 1
  outer loop
   vertex 24 18 17
   vertex 32 25 17
   vertex 24 25 17
  endloop
 endfacet
 facet normal 0 0 -1
  outer loop
   vertex 24 18 25
   vertex 32 25 25
   vertex 32 18 25
  endloop
 endfacet
 facet normal 0 0 -1
  outer loop
   vertex 24 18 25
   vertex 24 25 25
   vertex 32 25 25
  endloop
 endfacet
 facet normal 0 1 0
  outer loop
   vertex 24 18 17
   vertex 24 18 25
   vertex 32 18 25
  endloop
 endfacet
 facet normal 0 1 0
  outer loop
   vertex 24 18 17
   vertex 32 18 25
   vertex 32 18 17
  endloop
 endfacet
 facet normal -1 0 0
  outer loop
   vertex 32 18 17
   vertex 32 18 25
   vertex 32 25 25
  endloop
 endfacet
 facet normal -1 0 0
  outer loop
   vertex 32 18 17
   vertex 32 25 25
   vertex 32 25 17
  endloop
 endfacet
 facet normal 0 -1 0
  outer loop
   vertex 32 25 17
   vertex 32 25 25
   vertex 24 25 25
  endloop
 endfacet
 facet normal 0 -1 0
  outer loop
   vertex 32 25 17
   vertex 24 25 25
   vertex 24 25 17
  endloop
 endfacet
 facet normal 1 0 0
  outer loop
   vertex 24 25 17
   vertex 24 25 25
   vertex 24 18 25
  endloop
 endfacet
 facet normal 1 0 0
  outer loop
   vertex 24 25 17
   vertex 24 18 25
   vertex 24 18 17
  endloop
 endfacet
 facet normal 0 0 1
  outer loop
   vertex 27 8 18
   vertex 31 8 18
   vertex 31 18 18
  endloop
 endfacet
 facet normal 0 0 1
  outer loop
   vertex 27 8 18
   vertex 31 18 18
   vertex 27 18 18
  endloop
 endfacet
 facet normal 0 0 -1
  outer loop
   vertex 27 8 24
   vertex 31 18 24
   vertex 31 8 24
  endloop
 endfacet
 facet normal 0 0 -1
  outer loop
   vertex 27 8 24
   vertex 27 18 24
   vertex 31 18 24
  endloop
 endfacet
 facet normal 0 1 0
  outer loop
   vertex 27 8 18
   vertex 27 8 24
   vertex 31 8 24
  endloop
 endfacet
 facet normal 0 1 0
  outer loop
   vertex 27 8 18
   vertex 31 8 24
   vertex 31 8 18
  endloop
 endfacet
 facet normal -1 0 0
  outer loop
   vertex 31 8 18
   vertex 31 8 24
   vertex 31 18 24
  endloop
 endfacet
 facet normal -1 0 0
  outer loop
   vertex 31 8 18
   vertex 31 18 24
   vertex 31 18 18
  endloop
 endfacet
 facet normal 0 -1 0
  outer loop
   vertex 31 18 18
   vertex 31 18 24
   vertex 27 18 24
  endloop
 endfacet
 facet normal 0 -1 0
  outer loop
   vertex 31 18 18
   vertex 27 18 24
   vertex 27 18 18
  endloop
 endfacet
 facet normal 1 0 0
  outer loop
   vertex 27 18 18
   vertex 27 18 24
   vertex 27 8 24
  endloop
 endfacet
 facet normal 1 0 0
  outer loop
   vertex 27 18 18
   vertex 27 8 24
   vertex 27 8 18
  endloop
 endfacet
endsolid grip_clip_step5_final